<?xml version="1.0"?><svg id="Ebene_2" xmlns="http://www.w3.org/2000/svg" viewBox="0 0 113.39 113.39"><defs></defs><g id="Ebene_1-2"><path fill="#F27272" d="M56.69,0C25.38,0,0,25.38,0,56.69s25.38,56.69,56.69,56.69,56.69-25.38,56.69-56.69S88,0,56.69,0ZM39.22,22.92h33.93c.78,0,1.51.42,1.9,1.1l14.47,25.06c.84,1.46-.21,3.29-1.9,3.29h-33.93c-.78,0-1.51-.42-1.9-1.1l-14.47-25.06c-.84-1.46.21-3.29,1.9-3.29ZM32.14,72.23l-8.24-14.27c-.45-.78-.45-1.73,0-2.51l8.24-14.27c.97-1.67,3.38-1.67,4.34,0l8.24,14.27c.45.78.45,1.73,0,2.51l-8.24,14.27c-.97,1.67-3.38,1.67-4.34,0ZM89.53,64.3l-14.47,25.07c-.39.68-1.12,1.1-1.9,1.1h-33.93c-1.69,0-2.75-1.83-1.9-3.29l14.47-25.07c.39-.68,1.12-1.1,1.9-1.1h33.93c1.69,0,2.75,1.83,1.9,3.29Z"></path></g></svg>