<?xml version="1.0"?><svg id="Ebene_2" xmlns="http://www.w3.org/2000/svg" viewBox="0 0 522.37 168.92"><defs></defs><g id="Ebene_1-2"><path fill="#F27272" d="M14.8,56.48l9.44-16.35c.51-.89.51-1.98,0-2.87l-9.44-16.35c-1.11-1.92-3.87-1.92-4.98,0L.38,37.26c-.51.89-.51,1.98,0,2.87l9.44,16.35c1.11,1.92,3.87,1.92,4.98,0Z"></path><path fill="#F27272" d="M75.55,29.97L58.98,1.26C58.53.48,57.7,0,56.8,0H17.94C16,0,14.79,2.1,15.76,3.77l16.57,28.71c.45.78,1.28,1.26,2.18,1.26h38.86c1.94,0,3.15-2.1,2.18-3.77Z"></path><path fill="#F27272" d="M32.34,44.89l-16.58,28.72c-.97,1.68.24,3.77,2.18,3.77h38.86c.9,0,1.73-.48,2.18-1.26l16.58-28.72c.97-1.68-.24-3.77-2.18-3.77h-38.86c-.9,0-1.73.48-2.18,1.26Z"></path><path fill="#1F1F1F" d="M100.53,3.18v-1.06L114.58.02c.1-.01.2-.02.3-.02h1.02c1.11,0,2.01.9,2.01,2.01v23.85c0,3.07-.74,5.3-2.44,9.96l.95.42c2.76-8.48,8.8-12.83,17.07-12.83,11.24,0,23.11,9.96,23.11,26.92s-10.39,27.03-23.75,27.03c-5.9,0-10.43-1.73-14.1-4.95-.55-.48-1.33-.59-2.01-.33l-10.86,4.15c-.11.04-.23.06-.35.06h-.44c-.54,0-.97-.44-.97-.97V7.62c0-.53-.21-1.05-.59-1.42l-3.01-3.01ZM129.36,33.5c-5.83,0-11.45,4.35-11.45,12.3v17.72c0,.59.25,1.17.71,1.54,2.9,2.34,6.12,3.42,9.25,3.42,7.53,0,14.42-6.25,14.42-17.92s-6.57-17.07-12.93-17.07Z"></path><path fill="#1F1F1F" d="M210.72,52.98h-29.45c-1.32,0-2.27,1.25-1.95,2.53,1.98,7.93,7.9,12.73,16.27,12.73,6.9,0,11.53-2.08,14.71-6.49.32-.44.92-.56,1.37-.25h.02c.38.28.52.8.32,1.22-4.39,9.29-11.66,14.42-20.65,14.42-16.54,0-28.09-11.13-28.09-27.03s11.13-27.03,25.97-27.03,24.73,11.51,23.51,28c-.08,1.06-.95,1.89-2.01,1.89ZM189.65,48.21c6.47,0,10.71-3.5,10.71-8.9,0-6.36-4.03-10.92-9.65-10.92-7.2,0-11.56,6.41-12.04,17.71-.05,1.15.87,2.11,2.02,2.11h8.96Z"></path><path fill="#1F1F1F" d="M237.8,77.38c-11.98,0-18.34-6.78-18.34-15.05,0-21.84,32.75-16.32,32.75-25.87v-.53c0-4.45-3.29-7.1-7.53-7.1s-9.86,2.86-13.67,9.86l-2.44,4.35-.95.32-4.87-12.46c-.38-.96.04-2.04.95-2.53,5.98-3.17,13.23-5.04,20.03-5.04,11.77,0,22.26,5.72,22.26,20.67v26.83c0,.53.21,1.05.59,1.42l3.01,3.01v1.06h-15.48c-1.11,0-2.01-.9-2.01-2.01h0c0-1.91.64-4.56,1.27-5.94l-.85-.64c-2.76,6.15-8.16,9.65-14.73,9.65ZM235.88,66.9c4.77,2.49,10.68,2.15,15.62-1.85.46-.37.71-.95.71-1.54v-15.41c0-1.56-1.7-2.54-3.03-1.73-7.46,4.55-19.16,5.51-14.24,19.44.16.46.5.87.93,1.09Z"></path><path fill="#1F1F1F" d="M303.84,26.39v.74c0,1.11-.9,2.01-2.01,2.01h-8.27c-1.11,0-2.01.9-2.01,2.01v21.09c0,11.87,1.7,16.22,6.36,16.22,4.09,0,7.52-2.16,10.47-6.47.31-.45.93-.58,1.37-.26h0c.38.27.52.79.32,1.22-4.1,8.51-11.29,14.42-17.78,14.42-10.39,0-14.52-6.47-14.52-22.79v-23.43c0-1.11-.9-2.01-2.01-2.01h-4.14c-1.11,0-2.01-.9-2.01-2.01v-.85c0-1.05.8-1.9,1.84-2,8.28-.84,14.89-7.28,15.76-15.45.11-1.04.96-1.84,2-1.84h.32c1.11,0,2.01.9,2.01,2.01v7.42c0,4.03-2.12,6.89-5.09,6.89v1.06h15.37c1.11,0,2.01.9,2.01,2.01Z"></path><path fill="#1F1F1F" d="M303.62,26.17v.74c0,1.11-.9,2.01-2.01,2.01h-8.27c-1.11,0-2.01.9-2.01,2.01v21.09c0,11.87,1.7,16.22,6.36,16.22,4.09,0,7.52-2.16,10.47-6.47.31-.45.93-.58,1.37-.26h0c.38.27.52.79.32,1.22-4.1,8.51-11.29,14.42-17.78,14.42-10.39,0-14.52-6.47-14.52-22.79v-23.43c0-1.11-.9-2.01-2.01-2.01h-4.14c-1.11,0-2.01-.9-2.01-2.01v-.85c0-1.05.8-1.9,1.84-2,8.28-.84,14.89-7.28,15.76-15.45.11-1.04.96-1.84,2-1.84h.32c1.11,0,2.01.9,2.01,2.01v7.42c0,4.03-2.12,6.89-5.09,6.89v1.06h15.37c1.11,0,2.01.9,2.01,2.01Z"></path><path fill="#1F1F1F" d="M148.33,138.63c-.92-.46-1.32-1.56-.95-2.52l4.87-12.44.95.32,2.44,4.35c3.18,5.72,9.33,9.86,14.73,9.86s8.48-2.54,8.48-6.89c0-13.36-31.17-5.3-31.17-25.65,0-9.96,9.12-16.22,23.85-16.22,6.38,0,14.25,1.94,19.93,4.85.92.47,1.32,1.56.94,2.52l-4.87,12.45-.95-.32-2.44-4.35c-3.29-5.83-8.37-9.86-12.61-9.86-4.98,0-8.48,3.18-8.48,7.74,0,13.36,31.17,4.45,31.17,24.8,0,9.75-9.86,16.22-24.91,16.22-6.65,0-15.32-2.02-20.98-4.85Z"></path><path fill="#1F1F1F" d="M238.48,141.83c0-1.6-1.77-2.55-3.11-1.68-3.24,2.11-7.09,3.22-11.83,3.22-13.36,0-23.74-10.81-23.74-27.03s11.87-26.92,23.11-26.92c8.27,0,14.31,4.35,17.07,12.83l.95-.42c-1.7-4.77-2.44-7.1-2.44-7.95v-1.49c0-1.11.9-2.01,2.01-2.01h1.02c.1,0,.2,0,.3.02l14.06,2.1v1.06l-3.01,3.01c-.38.38-.59.89-.59,1.42v65.43c0,.53.21,1.05.59,1.42l3.01,3.01v1.06h-20.99v-1.06l3.01-3.01c.38-.38.59-.89.59-1.42v-21.6ZM228.51,134.58c3.4,0,6.36-1.25,9.2-3.42.49-.37.77-.97.77-1.59v-18c0-6.89-4.98-12.08-11.45-12.08-7.53,0-12.93,6.89-12.93,16.64,0,11.55,6.15,18.45,14.42,18.45Z"></path><path fill="#1F1F1F" d="M302.03,131.08l-.95-.42c-2.44,7.53-11.02,12.83-19.72,12.83-10.39,0-16.22-6.57-16.22-18.13v-29.36c0-.54-.22-1.07-.61-1.44l-3.1-3.01v-1.06h21.09v1.06l-3.01,3.01c-.38.38-.59.89-.59,1.42v26.09c0,7.21,4.24,10.49,8.9,10.49,5.62,0,11.77-4.66,11.77-12.83v-23.76c0-.53-.21-1.05-.59-1.42l-3.01-3.01v-1.06h20.99v1.06l-3.01,3.01c-.38.38-.59.89-.59,1.42v38.82c0,.53.21,1.05.59,1.42l3.01,3.01v1.06l-14.06,2.1c-.1.01-.2.02-.3.02h-1.02c-1.11,0-2.01-.9-2.01-2.01v-1.7c0-.74.74-2.97,2.44-7.63Z"></path><path fill="#1F1F1F" d="M341.14,143.48c-11.98,0-18.34-6.78-18.34-15.05,0-21.84,32.75-16.32,32.75-25.87v-.53c0-4.45-3.29-7.1-7.53-7.1s-9.86,2.86-13.67,9.86l-2.44,4.35-.95.32-4.87-12.46c-.38-.96.04-2.04.95-2.53,5.98-3.17,13.23-5.04,20.03-5.04,11.77,0,22.26,5.72,22.26,20.67v26.83c0,.53.21,1.05.59,1.42l3.01,3.01v1.06h-15.48c-1.11,0-2.01-.9-2.01-2.01h0c0-1.91.64-4.56,1.27-5.94l-.85-.64c-2.76,6.15-8.16,9.65-14.73,9.65ZM339.22,133c4.77,2.49,10.68,2.15,15.62-1.85.46-.37.71-.95.71-1.54v-15.41c0-1.56-1.7-2.54-3.03-1.73-7.46,4.55-19.16,5.51-14.24,19.44.16.46.5.87.93,1.09Z"></path><path fill="#1F1F1F" d="M466.9,119.31h-29.45c-1.32,0-2.27,1.25-1.95,2.53,1.98,7.93,7.9,12.73,16.27,12.73,6.9,0,11.53-2.08,14.71-6.49.32-.44.92-.56,1.37-.25h.02c.38.28.52.8.32,1.22-4.39,9.29-11.66,14.42-20.65,14.42-16.54,0-28.09-11.13-28.09-27.03s11.13-27.03,25.97-27.03,24.73,11.51,23.51,28c-.08,1.06-.95,1.89-2.01,1.89ZM445.83,114.54c6.47,0,10.71-3.5,10.71-8.9,0-6.36-4.03-10.92-9.65-10.92-7.2,0-11.56,6.41-12.04,17.71-.05,1.15.87,2.11,2.02,2.11h8.96Z"></path><path fill="#1F1F1F" d="M476.47,138.63c-.92-.46-1.32-1.56-.95-2.52l4.87-12.44.95.32,2.44,4.35c3.18,5.72,9.33,9.86,14.73,9.86s8.48-2.54,8.48-6.89c0-13.36-31.17-5.3-31.17-25.65,0-9.96,9.12-16.22,23.85-16.22,6.38,0,14.25,1.94,19.93,4.85.92.47,1.32,1.56.94,2.52l-4.87,12.45-.95-.32-2.44-4.35c-3.29-5.83-8.37-9.86-12.61-9.86-4.98,0-8.48,3.18-8.48,7.74,0,13.36,31.17,4.45,31.17,24.8,0,9.75-9.86,16.22-24.91,16.22-6.65,0-15.32-2.02-20.98-4.85Z"></path><path fill="#1F1F1F" d="M407.6,99.49c2.92,0,5.65.89,7.92,2.51l.77-.15,7.09-8.86c-4.39-2.66-7.92-3.57-12.71-3.57-7.53,0-13.36,4.66-16.01,12.83l-.95-.42c1.7-4.77,2.44-7.1,2.44-7.95v-1.49c0-1.11-.9-2.01-2.01-2.01h-1.02c-.1,0-.2,0-.3.02l-14.06,2.1v1.06l3.01,3.01c.38.38.59.89.59,1.42v38.93c0,.53-.21,1.05-.59,1.42l-3.01,3.01v1.06h20.99v-1.06l-3.01-3.01c-.38-.38-.59-.89-.59-1.42v-26.62c0-6.25,4.88-10.81,11.45-10.81Z"></path></g></svg>